<svg xmlns="http://www.w3.org/2000/svg" viewBox="0 0 40.75 16.75"><defs><style>.cls-1,.cls-3{fill:#343a40;}.cls-2{fill:none;}.cls-2,.cls-3{stroke:#343a40;stroke-linecap:round;stroke-linejoin:round;stroke-width:0.75px;}</style></defs><title>textarea</title><g id="Livello_1" data-name="Livello 1"><path class="cls-1" d="M14,27.38l-.34-.9H10.75l-.35.92a3,3,0,0,1-.34.73.55.55,0,0,1-.46.18.65.65,0,0,1-.48-.2.6.6,0,0,1-.21-.45,1,1,0,0,1,0-.3c0-.11.09-.25.17-.44L11,22.27l.18-.48a3.22,3.22,0,0,1,.24-.46.8.8,0,0,1,.33-.3,1.1,1.1,0,0,1,1,0,.85.85,0,0,1,.33.29,2.42,2.42,0,0,1,.21.39c.06.14.13.32.22.55l1.87,4.62a2.57,2.57,0,0,1,.22.77.63.63,0,0,1-.21.46.68.68,0,0,1-.5.2.62.62,0,0,1-.29-.06.56.56,0,0,1-.21-.16,2.22,2.22,0,0,1-.18-.33C14.1,27.62,14,27.49,14,27.38Zm-2.87-2h2.14l-1.08-2.95Z" transform="translate(-4.63 -16.63)"/><path class="cls-1" d="M17.75,21.67v2a3,3,0,0,1,.77-.6,2,2,0,0,1,1-.21,2.18,2.18,0,0,1,1.17.32,2,2,0,0,1,.77.91,3.27,3.27,0,0,1,.28,1.42,3.59,3.59,0,0,1-.16,1.11,2.69,2.69,0,0,1-.44.88,2,2,0,0,1-.71.57,2,2,0,0,1-.92.2,2.15,2.15,0,0,1-.58-.07,1.63,1.63,0,0,1-.46-.19,1.78,1.78,0,0,1-.33-.25,5.16,5.16,0,0,1-.35-.38v.13a.81.81,0,0,1-.18.57.6.6,0,0,1-.46.19.55.55,0,0,1-.45-.19.81.81,0,0,1-.17-.57V21.73a1,1,0,0,1,.16-.61.55.55,0,0,1,.46-.21.59.59,0,0,1,.47.2A.85.85,0,0,1,17.75,21.67Zm.06,4a1.83,1.83,0,0,0,.37,1.23,1.19,1.19,0,0,0,.95.42,1.1,1.1,0,0,0,.87-.43,1.93,1.93,0,0,0,.36-1.26,2.42,2.42,0,0,0-.15-.9,1.26,1.26,0,0,0-.43-.59,1.05,1.05,0,0,0-.65-.21,1.16,1.16,0,0,0-.68.21,1.44,1.44,0,0,0-.47.6A2.38,2.38,0,0,0,17.81,25.63Z" transform="translate(-4.63 -16.63)"/><path class="cls-1" d="M27.55,26.66a1.16,1.16,0,0,1-.15.54,2,2,0,0,1-.46.54,2.38,2.38,0,0,1-.76.41,3.41,3.41,0,0,1-1.05.15,2.57,2.57,0,0,1-1.93-.72,2.67,2.67,0,0,1-.69-1.93,3.22,3.22,0,0,1,.32-1.45,2.21,2.21,0,0,1,.92-1,2.81,2.81,0,0,1,1.43-.35,2.91,2.91,0,0,1,.95.16,2.41,2.41,0,0,1,.73.39,1.8,1.8,0,0,1,.46.51,1,1,0,0,1,.16.5.54.54,0,0,1-.18.41.6.6,0,0,1-.43.16.44.44,0,0,1-.28-.08,1.47,1.47,0,0,1-.24-.28,2.12,2.12,0,0,0-.51-.55,1.25,1.25,0,0,0-1.63.27,2,2,0,0,0-.36,1.26,2.5,2.5,0,0,0,.09.69,1.52,1.52,0,0,0,.27.54,1.24,1.24,0,0,0,.42.34,1.26,1.26,0,0,0,.55.11,1.29,1.29,0,0,0,.69-.18,1.57,1.57,0,0,0,.5-.57,1.12,1.12,0,0,1,.27-.35.45.45,0,0,1,.34-.13.5.5,0,0,1,.41.19A.56.56,0,0,1,27.55,26.66Z" transform="translate(-4.63 -16.63)"/><path class="cls-1" d="M29.1,28.31a.77.77,0,0,1-.53-.19.71.71,0,0,1-.22-.55.69.69,0,0,1,.21-.51.73.73,0,0,1,.52-.22.75.75,0,0,1,.53.22.69.69,0,0,1,.21.51.74.74,0,0,1-.21.55A.75.75,0,0,1,29.1,28.31Z" transform="translate(-4.63 -16.63)"/><path class="cls-1" d="M32.23,28.31a.77.77,0,0,1-.53-.19.71.71,0,0,1-.22-.55.69.69,0,0,1,.21-.51.73.73,0,0,1,.52-.22.75.75,0,0,1,.53.22.69.69,0,0,1,.21.51.74.74,0,0,1-.21.55A.75.75,0,0,1,32.23,28.31Z" transform="translate(-4.63 -16.63)"/><path class="cls-1" d="M35.36,28.31a.77.77,0,0,1-.53-.19.71.71,0,0,1-.22-.55.69.69,0,0,1,.21-.51.73.73,0,0,1,.52-.22.75.75,0,0,1,.53.22.69.69,0,0,1,.21.51.74.74,0,0,1-.21.55A.75.75,0,0,1,35.36,28.31Z" transform="translate(-4.63 -16.63)"/></g><g id="Livello_4" data-name="Livello 4"><rect class="cls-2" x="0.38" y="0.38" width="40" height="16" rx="2"/></g><g id="Livello_2" data-name="Livello 2"><line class="cls-3" x1="31.83" y1="15.18" x2="39.13" y2="7.87"/><line class="cls-3" x1="34.48" y1="15.07" x2="39.07" y2="10.48"/><line class="cls-3" x1="37.11" y1="15.09" x2="39.23" y2="12.97"/></g></svg>