<svg xmlns="http://www.w3.org/2000/svg" viewBox="0 0 40.75 16.75"><defs><style>.cls-1{fill:none;stroke:#343a40;stroke-linecap:round;stroke-linejoin:round;stroke-width:0.75px;}.cls-2{fill:#343a40;}.cls-3{fill:#fff;}</style></defs><title>date</title><g id="Livello_4" data-name="Livello 4"><rect class="cls-1" x="0.38" y="0.38" width="40" height="16" rx="2"/></g><g id="Livello_7" data-name="Livello 7"><path class="cls-2" d="M10.78,30.1V25.65a4,4,0,0,1-1.67,1,.48.48,0,0,1-.36-.17.51.51,0,0,1-.16-.38.42.42,0,0,1,.15-.36,4.27,4.27,0,0,1,.55-.31,4.1,4.1,0,0,0,1-.58,4.1,4.1,0,0,0,.63-.69l.35-.47a.44.44,0,0,1,.32-.09.5.5,0,0,1,.41.2.86.86,0,0,1,.16.55v5.6c0,.65-.23,1-.67,1a.63.63,0,0,1-.48-.2A.87.87,0,0,1,10.78,30.1Z" transform="translate(-4.63 -16.63)"/><path class="cls-2" d="M18.63,29.61h2.55a1,1,0,0,1,.58.16.52.52,0,0,1,.2.42.56.56,0,0,1-.16.41.62.62,0,0,1-.48.17H17.73a.74.74,0,0,1-.57-.21.62.62,0,0,1-.21-.47,1.34,1.34,0,0,1,.13-.47,1.92,1.92,0,0,1,.29-.46c.43-.45.82-.83,1.17-1.15a7.63,7.63,0,0,1,.75-.63,4.42,4.42,0,0,0,.67-.57,2.37,2.37,0,0,0,.4-.59,1.42,1.42,0,0,0,.14-.59,1.07,1.07,0,0,0-.15-.56,1,1,0,0,0-.4-.38,1.19,1.19,0,0,0-.56-.14,1.15,1.15,0,0,0-1,.57,1.88,1.88,0,0,0-.16.4A1.78,1.78,0,0,1,18,26a.52.52,0,0,1-.42.18.55.55,0,0,1-.41-.17.57.57,0,0,1-.16-.44,1.88,1.88,0,0,1,.15-.7,2,2,0,0,1,.45-.66,2.2,2.2,0,0,1,.77-.48,2.71,2.71,0,0,1,1.08-.19,3,3,0,0,1,1.27.24,1.7,1.7,0,0,1,.6.43,1.88,1.88,0,0,1,.4.63,1.92,1.92,0,0,1,.15.74,2.1,2.1,0,0,1-.3,1.11,3.69,3.69,0,0,1-.61.77c-.21.19-.56.48-1.05.88a7.08,7.08,0,0,0-1,.94A2.09,2.09,0,0,0,18.63,29.61Z" transform="translate(-4.63 -16.63)"/><path class="cls-2" d="M27.58,26.44a1.19,1.19,0,0,0,.78-.26,1,1,0,0,0,.32-.76.9.9,0,0,0-.26-.64.91.91,0,0,0-.7-.27,1.17,1.17,0,0,0-.49.08.69.69,0,0,0-.3.22,1.62,1.62,0,0,0-.22.35c-.06.14-.12.28-.18.4a.35.35,0,0,1-.17.17.73.73,0,0,1-.3.05.53.53,0,0,1-.36-.15.57.57,0,0,1-.16-.43,1.13,1.13,0,0,1,.15-.53,2.23,2.23,0,0,1,.45-.54,2.18,2.18,0,0,1,.74-.4,2.76,2.76,0,0,1,1-.16,2.93,2.93,0,0,1,.86.13,2,2,0,0,1,.68.38,1.68,1.68,0,0,1,.44.56,1.82,1.82,0,0,1,.14.7,1.57,1.57,0,0,1-.21.83,2.54,2.54,0,0,1-.61.68,2.72,2.72,0,0,1,.64.47,1.76,1.76,0,0,1,.4.59,1.73,1.73,0,0,1,.13.69,2.18,2.18,0,0,1-.18.86,2.32,2.32,0,0,1-.52.74,2.76,2.76,0,0,1-.83.51,2.89,2.89,0,0,1-1.05.18,2.52,2.52,0,0,1-1.05-.21,2.4,2.4,0,0,1-.76-.53,2.5,2.5,0,0,1-.46-.65,1.42,1.42,0,0,1-.15-.56.58.58,0,0,1,.18-.45.63.63,0,0,1,.46-.18.5.5,0,0,1,.26.08.4.4,0,0,1,.17.2,3.44,3.44,0,0,0,.54,1,1,1,0,0,0,.82.33,1.26,1.26,0,0,0,.59-.15,1.36,1.36,0,0,0,.33-2,1.14,1.14,0,0,0-.87-.32,1.91,1.91,0,0,0-.3,0h-.27a.59.59,0,0,1-.41-.13.47.47,0,0,1-.15-.37.45.45,0,0,1,.18-.38.79.79,0,0,1,.52-.15Z" transform="translate(-4.63 -16.63)"/><path class="cls-2" d="M34.86,30.89a.78.78,0,0,1-.53-.2.71.71,0,0,1-.22-.54.73.73,0,0,1,.21-.52.72.72,0,0,1,.52-.21.74.74,0,0,1,.53.21.77.77,0,0,1,0,1.06A.76.76,0,0,1,34.86,30.89Z" transform="translate(-4.63 -16.63)"/><path class="cls-2" d="M40.49,30.89a.78.78,0,0,1-.53-.2.71.71,0,0,1-.22-.54.73.73,0,0,1,.21-.52.72.72,0,0,1,.52-.21.74.74,0,0,1,.53.21.77.77,0,0,1,0,1.06A.76.76,0,0,1,40.49,30.89Z" transform="translate(-4.63 -16.63)"/><rect class="cls-2" x="0.37" y="0.37" width="40" height="5" rx="1"/><path class="cls-3" d="M18.39,18.67h-.86v.55h.72a.24.24,0,0,1,.15,0,.2.2,0,0,1,0,.24.24.24,0,0,1-.15,0h-.72v.71a.28.28,0,0,1-.06.2.22.22,0,0,1-.16.07.21.21,0,0,1-.15-.07.28.28,0,0,1-.06-.2V18.6a.34.34,0,0,1,0-.15.2.2,0,0,1,.09-.09.33.33,0,0,1,.15,0h1a.21.21,0,0,1,.15.05.17.17,0,0,1,0,.24A.21.21,0,0,1,18.39,18.67Z" transform="translate(-4.63 -16.63)"/><path class="cls-3" d="M20.33,18.67h-1v.52h.9a.21.21,0,0,1,.15,0,.17.17,0,0,1,.05.12.13.13,0,0,1-.05.12.21.21,0,0,1-.15,0h-.9v.61h1a.23.23,0,0,1,.15.05.19.19,0,0,1,.05.13.17.17,0,0,1-.05.12.23.23,0,0,1-.15.05H19.18a.28.28,0,0,1-.2-.06.31.31,0,0,1-.06-.21V18.6a.61.61,0,0,1,0-.15.2.2,0,0,1,.09-.09.33.33,0,0,1,.15,0h1.15a.25.25,0,0,1,.16.05.17.17,0,0,1,0,.24A.25.25,0,0,1,20.33,18.67Z" transform="translate(-4.63 -16.63)"/><path class="cls-3" d="M21.83,20.48h-.65a.22.22,0,0,1-.27-.27V18.6a.23.23,0,0,1,.27-.27h.69l.27,0a.68.68,0,0,1,.2.07.53.53,0,0,1,.14.12.6.6,0,0,1,.09.15.57.57,0,0,1,0,.18.49.49,0,0,1-.33.47.53.53,0,0,1,.43.53.57.57,0,0,1-.09.32.56.56,0,0,1-.25.21.77.77,0,0,1-.23.06Zm-.48-1.82v.55h.4a.81.81,0,0,0,.25,0,.24.24,0,0,0,.13-.11.25.25,0,0,0,0-.14.23.23,0,0,0-.11-.22,1.06,1.06,0,0,0-.36-.05Zm.45.87h-.45v.62h.47c.29,0,.44-.1.44-.32a.26.26,0,0,0-.12-.23A.62.62,0,0,0,21.8,19.53Z" transform="translate(-4.63 -16.63)"/><path class="cls-3" d="M23.66,19.56h-.15v.69a.28.28,0,0,1-.06.2.24.24,0,0,1-.16.07.22.22,0,0,1-.16-.07.3.3,0,0,1-.06-.2V18.6a.23.23,0,0,1,.07-.2.24.24,0,0,1,.2-.07h1a.48.48,0,0,1,.18.06.36.36,0,0,1,.18.12.57.57,0,0,1,.12.18.54.54,0,0,1,0,.22.56.56,0,0,1-.13.39.83.83,0,0,1-.42.2.76.76,0,0,1,.23.18,1.51,1.51,0,0,1,.18.26,1.47,1.47,0,0,1,.13.24.5.5,0,0,1,.05.15.16.16,0,0,1,0,.09s0,.05-.07.06a.2.2,0,0,1-.11,0,.21.21,0,0,1-.12,0,.2.2,0,0,1-.09-.09s-.06-.08-.1-.15L24.17,20a1.07,1.07,0,0,0-.17-.24.4.4,0,0,0-.15-.12A.5.5,0,0,0,23.66,19.56Zm.25-.9h-.4v.59h.39a1,1,0,0,0,.26,0,.31.31,0,0,0,.16-.09.24.24,0,0,0,.06-.18.24.24,0,0,0-.05-.16.29.29,0,0,0-.12-.1A1,1,0,0,0,23.91,18.66Z" transform="translate(-4.63 -16.63)"/><path class="cls-3" d="M25.16,19.59v-1a.3.3,0,0,1,.06-.2.21.21,0,0,1,.16-.06.23.23,0,0,1,.16.06.3.3,0,0,1,.06.2v1.06a.87.87,0,0,0,0,.3.28.28,0,0,0,.14.18.48.48,0,0,0,.29.07.43.43,0,0,0,.36-.13.71.71,0,0,0,.1-.42V18.56a.28.28,0,0,1,.06-.2.21.21,0,0,1,.16-.06.23.23,0,0,1,.16.06.28.28,0,0,1,.06.2v1a1.61,1.61,0,0,1,0,.42.7.7,0,0,1-.19.3.92.92,0,0,1-.27.16,1.25,1.25,0,0,1-.36.05,1.35,1.35,0,0,1-.43-.06.63.63,0,0,1-.29-.16.7.7,0,0,1-.17-.29A1.73,1.73,0,0,1,25.16,19.59Z" transform="translate(-4.63 -16.63)"/><path class="cls-3" d="M28.66,20.24l-.1-.27h-.87l-.11.27a.94.94,0,0,1-.1.22.16.16,0,0,1-.14.06.2.2,0,0,1-.14-.06.21.21,0,0,1-.07-.14.29.29,0,0,1,0-.09.55.55,0,0,1,.05-.13l.55-1.4s0-.08.05-.14l.07-.14a.28.28,0,0,1,.1-.09.39.39,0,0,1,.3,0,.22.22,0,0,1,.1.09.23.23,0,0,1,.06.12l.07.16.56,1.39a.79.79,0,0,1,.07.23.16.16,0,0,1-.07.13.18.18,0,0,1-.15.07l-.08,0a.18.18,0,0,1-.07-.05l-.05-.1A1.17,1.17,0,0,0,28.66,20.24Zm-.86-.6h.64l-.32-.89Z" transform="translate(-4.63 -16.63)"/><path class="cls-3" d="M30,19.56h-.15v.69a.28.28,0,0,1-.06.2.22.22,0,0,1-.32,0,.3.3,0,0,1-.06-.2V18.6a.23.23,0,0,1,.07-.2.24.24,0,0,1,.2-.07h1a.6.6,0,0,1,.19.06.38.38,0,0,1,.17.12.44.44,0,0,1,.12.18.54.54,0,0,1,0,.22.56.56,0,0,1-.13.39.83.83,0,0,1-.41.2.87.87,0,0,1,.22.18,2.48,2.48,0,0,1,.19.26,2.67,2.67,0,0,1,.12.24.5.5,0,0,1,.05.15.16.16,0,0,1,0,.09.14.14,0,0,1-.07.06.2.2,0,0,1-.11,0,.21.21,0,0,1-.12,0,.26.26,0,0,1-.09-.09l-.1-.15L30.54,20a1.07,1.07,0,0,0-.17-.24.4.4,0,0,0-.15-.12A.5.5,0,0,0,30,19.56Zm.25-.9h-.4v.59h.39a1,1,0,0,0,.26,0,.39.39,0,0,0,.17-.09.3.3,0,0,0,.05-.18.29.29,0,0,0,0-.16.32.32,0,0,0-.13-.1A1,1,0,0,0,30.28,18.66Z" transform="translate(-4.63 -16.63)"/><path class="cls-3" d="M32,20.25v-.68l-.53-.81-.09-.17a.3.3,0,0,1,0-.11.18.18,0,0,1,.06-.13.16.16,0,0,1,.14-.05.14.14,0,0,1,.13.05,1.21,1.21,0,0,1,.14.2l.4.65.41-.65.06-.1.06-.08.06-.06h.09a.17.17,0,0,1,.14.05.15.15,0,0,1,.05.12.5.5,0,0,1,0,.12s0,.09-.1.16l-.54.82v.68a.28.28,0,0,1-.06.2.22.22,0,0,1-.16.07.21.21,0,0,1-.15-.07A.28.28,0,0,1,32,20.25Z" transform="translate(-4.63 -16.63)"/></g></svg>