<svg id="Input" xmlns="http://www.w3.org/2000/svg" viewBox="0 0 200 200"><defs><style>.cls-1{fill:#fff;}.cls-2{font-size:35px;fill:#6e00ff;font-family:ArialRoundedMTBold, Arial Rounded MT Bold;}.cls-3{letter-spacing:-0.05em;}.cls-4{letter-spacing:0em;}.cls-5{fill:none;stroke:#6e00ff;stroke-linecap:round;stroke-linejoin:round;stroke-width:4px;}</style></defs><title>Tavola disegno 1input</title><rect class="cls-1" x="19.75" y="66.75" width="158.5" height="66.5" rx="7.84"/><path class="cls-1" d="M170.41,69A5.59,5.59,0,0,1,176,74.59v50.82a5.59,5.59,0,0,1-5.59,5.59H27.59A5.59,5.59,0,0,1,22,125.41V74.59A5.59,5.59,0,0,1,27.59,69H170.41m0-4.5H27.59A10.11,10.11,0,0,0,17.5,74.59v50.82A10.11,10.11,0,0,0,27.59,135.5H170.41a10.11,10.11,0,0,0,10.09-10.09V74.59A10.11,10.11,0,0,0,170.41,64.5Z"/><text class="cls-2" transform="translate(32.46 112.73)">AB<tspan class="cls-3" x="50.35" y="0">C</tspan><tspan class="cls-4" x="74.51" y="0">...</tspan></text><line class="cls-5" x1="160" y1="80" x2="160" y2="120"/><line class="cls-5" x1="153" y1="121.5" x2="167" y2="121.5"/><line class="cls-5" x1="153" y1="78.5" x2="167" y2="78.5"/></svg>