<svg id="Livello_1" data-name="Livello 1" xmlns="http://www.w3.org/2000/svg" viewBox="0 0 455.83 91"><defs><style>.cls-1{fill:#fff;}.cls-2{fill:#fbb03b;}</style></defs><path class="cls-1" d="M75.87,151.8v-3.2c7.54-.91,8.46-2.06,6.84-6.39s-3.83-10.16-6.26-17.35H51.39c-1.85,5.13-3.6,9.58-5.22,14.26-2.55,7.42-.93,8.34,8.58,9.48v3.2H28v-3.2c7.31-.91,9.16-1.71,13.22-12l24-59.92L68.91,76c7.3,19.52,15.31,41.09,22.62,60.84,3.71,9.93,4.75,10.85,13,11.76v3.2ZM64.27,91c-3.72,9.82-7.66,20.21-11.14,29.23H74.82Z" transform="translate(-27.96 -68.3)"/><path class="cls-1" d="M139.09,76.4c8.23,0,14.84,1.51,19.6,5,4.52,3.36,7.65,8.81,7.65,16.47,0,16.93-14.49,23.78-25.51,23.78a19.84,19.84,0,0,1-3.14-.24l-8-2.08v18.09c0,9.75.81,10,11.48,11.14v3.25h-32v-3.25c10-1.05,10.44-1.74,10.44-11.37V91.13c0-10.32-1.28-10.56-10.44-11.48V76.4Zm-9.4,38.86a21.18,21.18,0,0,0,8.47,1.5c7.77,0,17.4-3.94,17.4-18.55,0-12.76-8.35-17.87-18.1-17.87-3.36,0-5.8.58-6.49,1.39-.93.81-1.28,2.21-1.28,5.34Z" transform="translate(-27.96 -68.3)"/><path class="cls-1" d="M217.62,76c19.83,0,37.58,14.66,37.58,36.94C255.2,137,238.26,152,216.92,152c-22.27,0-38.51-16.34-38.51-37.38C178.41,94.58,193.14,76,217.62,76Zm-2.33,4.14c-13,0-24.82,10.52-24.82,31.45s11.83,36.16,28.31,36.16c14,0,24.59-10.08,24.59-31.68C243.37,92.57,230.49,80.14,215.29,80.14Z" transform="translate(-27.96 -68.3)"/><path class="cls-1" d="M324.68,132.54c-.7,3.6-4.18,15.66-5.34,19.26H265.41v-3.25c10.55-1.05,11.48-1.63,11.48-11.49V91c0-9.86-1.16-10.44-10.44-11.36V76.4h31.09v3.25C288.26,80.57,287,81,287,91v47.21c0,7.08.93,8.7,7.54,8.82l9.16.12c5.92,0,7.66-.7,10.33-3.6,2.9-3,5.33-7.66,7.07-11.95Z" transform="translate(-27.96 -68.3)"/><path class="cls-1" d="M390.57,132.54c-.7,3.6-4.18,15.66-5.34,19.26H331.29v-3.25c10.56-1.05,11.49-1.63,11.49-11.49V91c0-9.86-1.16-10.44-10.44-11.36V76.4h31.08v3.25c-9.28.92-10.55,1.39-10.55,11.36v47.21c0,7.08.93,8.7,7.54,8.82l9.16.12c5.92,0,7.66-.7,10.32-3.6,2.9-3,5.34-7.66,7.08-11.95Z" transform="translate(-27.96 -68.3)"/><path class="cls-2" d="M447.71,159.3c-1-1-1.81-1.94-2.69-2.8a9.55,9.55,0,0,0-13.59,0c-.77.74-1.52,1.49-2.27,2.25-.32.32-.5.44-.69-.13-.34-1-.74-2-1.15-3-2.26-5.46-7.49-7.69-12.81-5.57-.84.33-1.7.6-2.53,1-.58.25-.72.15-.68-.48.1-1.21.15-2.44.16-3.65a9.39,9.39,0,0,0-8.9-9.42c-1.06-.07-2.13-.17-3.19-.16-.79,0-.78-.33-.52-.85.42-.87.87-1.72,1.3-2.58,2.26-4.48,1.24-9-2.59-12.2-1.44-1.21-3.2-1.75-4.77-2.81a8.61,8.61,0,0,1,1.76-1.53c2.27-1.69,4-3.71,4.51-6.6a9.58,9.58,0,0,0-1.87-7.71c-.8-1-1.64-2-2.53-3.16l3.46-.93a9.58,9.58,0,0,0,7-12.09c-.26-1-.48-1.93-.78-2.88-.19-.59,0-.65.54-.57,1.34.2,2.68.48,4,.56A9.42,9.42,0,0,0,419,75.53c.14-1.13.37-2.26.58-3.48,1.07.68,2.06,1.29,3,1.93a9.4,9.4,0,0,0,5.2,1.81,9.56,9.56,0,0,0,7.72-3.73c.84-1.09,1.58-2.27,2.33-3.43.29-.45.43-.42.72,0a28,28,0,0,0,3,4.23,11.07,11.07,0,0,0,4.87,2.65c2.71.79,5-.25,7.2-1.45.76-.41,1.46-.94,2.2-1.41,1-.64,1-.63,1.17.51s.28,2,.47,3a9.54,9.54,0,0,0,11.18,7.69l2.88-.46c.5-.09.71,0,.53.58-.35,1.19-.66,2.41-.93,3.63a9.46,9.46,0,0,0,6.69,11.19c1.26.36,2.53.69,3.93,1.07-.86,1.07-1.64,2-2.41,3a9.58,9.58,0,0,0,1.39,13.54c1,.8,1.94,1.57,3,2.44-1.11.57-2.12,1-3.09,1.6a10.18,10.18,0,0,0-5.48,7.36,9.19,9.19,0,0,0,.91,5.71c.48,1,1,1.94,1.47,2.92.24.51.29.87-.51.86-1.07,0-2.13.1-3.2.16a9.42,9.42,0,0,0-8.91,9.41c0,1.22.07,2.44.17,3.66.05.62-.09.69-.68.49a23.57,23.57,0,0,0-5.24-1.69,8.91,8.91,0,0,0-7.06,2,10.17,10.17,0,0,0-3.08,4.35C448.7,156.86,448.24,158,447.71,159.3Zm-9.49-10a35.45,35.45,0,1,0-35.33-35.52A35.29,35.29,0,0,0,438.22,149.3Z" transform="translate(-27.96 -68.3)"/><path class="cls-2" d="M438.2,144.63c-16.72.1-30.48-13.73-30.57-30.68a30.6,30.6,0,1,1,30.57,30.68Z" transform="translate(-27.96 -68.3)"/></svg>