<svg id="Radio" xmlns="http://www.w3.org/2000/svg" viewBox="0 0 200 200"><defs><style>.cls-1,.cls-2,.cls-3{fill:#fff;}.cls-1,.cls-3{stroke:#fff;stroke-miterlimit:10;}.cls-3{stroke-linecap:round;stroke-width:4px;}</style></defs><title>Tavola disegno 1radio</title><path class="cls-1" d="M36,132.63a14.34,14.34,0,1,1-5.59,1.13A14.25,14.25,0,0,1,36,132.63M36,129a18,18,0,1,0,18,18,18,18,0,0,0-18-18Z"/><path class="cls-1" d="M36,85.63a14.34,14.34,0,1,1-5.59,1.13A14.25,14.25,0,0,1,36,85.63M36,82a18,18,0,1,0,18,18A18,18,0,0,0,36,82Z"/><path class="cls-2" d="M27,100a9,9,0,1,0,9-9,9,9,0,0,0-9,9Z"/><path class="cls-1" d="M36,38.63a14.34,14.34,0,1,1-5.59,1.13A14.25,14.25,0,0,1,36,38.63M36,35A18,18,0,1,0,54,53,18,18,0,0,0,36,35Z"/><line class="cls-3" x1="69" y1="53" x2="179" y2="53"/><line class="cls-3" x1="69" y1="100" x2="179" y2="100"/><line class="cls-3" x1="69" y1="147" x2="179" y2="147"/></svg>