<svg id="Radio_copia" data-name="Radio copia" xmlns="http://www.w3.org/2000/svg" viewBox="0 0 200 200"><defs><style>.cls-1,.cls-2{fill:#fff;}.cls-1{stroke:#fff;stroke-miterlimit:10;}</style></defs><title>Tavola disegno 1multi radio</title><path class="cls-1" d="M36,133.38a14.34,14.34,0,1,1-5.59,1.13A14.25,14.25,0,0,1,36,133.38m0-3.63a18,18,0,1,0,18,18,18,18,0,0,0-18-18Z"/><path class="cls-1" d="M36,85.88A14.34,14.34,0,1,1,30.41,87,14.25,14.25,0,0,1,36,85.88m0-3.63a18,18,0,1,0,18,18,18,18,0,0,0-18-18Z"/><path class="cls-2" d="M27,100.25a9,9,0,1,0,9-9,9,9,0,0,0-9,9Z"/><path class="cls-1" d="M36,37.88A14.34,14.34,0,1,1,30.41,39,14.25,14.25,0,0,1,36,37.88m0-3.63a18,18,0,1,0,18,18,18,18,0,0,0-18-18Z"/><path class="cls-1" d="M100,133.38a14.34,14.34,0,1,1-5.59,1.13,14.25,14.25,0,0,1,5.59-1.13m0-3.63a18,18,0,1,0,18,18,18,18,0,0,0-18-18Z"/><path class="cls-2" d="M91.19,147.75a9,9,0,1,0,9-9,9,9,0,0,0-9,9Z"/><path class="cls-1" d="M100,85.88A14.34,14.34,0,1,1,94.41,87,14.25,14.25,0,0,1,100,85.88m0-3.63a18,18,0,1,0,18,18,18,18,0,0,0-18-18Z"/><path class="cls-1" d="M100,37.88A14.34,14.34,0,1,1,94.41,39,14.25,14.25,0,0,1,100,37.88m0-3.63a18,18,0,1,0,18,18,18,18,0,0,0-18-18Z"/><path class="cls-1" d="M164,133.38a14.34,14.34,0,1,1-5.59,1.13,14.25,14.25,0,0,1,5.59-1.13m0-3.63a18,18,0,1,0,18,18,18,18,0,0,0-18-18Z"/><path class="cls-1" d="M164,85.88A14.34,14.34,0,1,1,158.41,87,14.25,14.25,0,0,1,164,85.88m0-3.63a18,18,0,1,0,18,18,18,18,0,0,0-18-18Z"/><path class="cls-1" d="M164,37.88A14.34,14.34,0,1,1,158.41,39,14.25,14.25,0,0,1,164,37.88m0-3.63a18,18,0,1,0,18,18,18,18,0,0,0-18-18Z"/><path class="cls-2" d="M155.19,52.25a9,9,0,1,0,9-9,9,9,0,0,0-9,9Z"/></svg>