<svg id="Input_copia" data-name="Input copia" xmlns="http://www.w3.org/2000/svg" viewBox="0 0 163 136"><defs><style>.cls-1{fill:#fff;}.cls-2{font-size:26px;}.cls-2,.cls-3,.cls-5{fill:#6e00ff;}.cls-2,.cls-5{font-family:ArialRoundedMTBold, Arial Rounded MT Bold;}.cls-3{stroke:#6e00ff;stroke-linecap:round;stroke-linejoin:round;stroke-width:2px;}.cls-4{fill:#e2cdfe;}.cls-5{font-size:14px;}</style></defs><rect class="cls-1" x="2.25" y="2.25" width="158.5" height="56.5" rx="7.84"/><path class="cls-1" d="M171.41,36.5A5.59,5.59,0,0,1,177,42.09V82.91a5.59,5.59,0,0,1-5.59,5.59H28.59A5.59,5.59,0,0,1,23,82.91V42.09a5.59,5.59,0,0,1,5.59-5.59H171.41m0-4.5H28.59A10.11,10.11,0,0,0,18.5,42.09V82.91A10.11,10.11,0,0,0,28.59,93H171.41A10.11,10.11,0,0,0,181.5,82.91V42.09A10.11,10.11,0,0,0,171.41,32Z" transform="translate(-18.5 -32)"/><text id="_1._Apple" data-name="1. Apple" class="cls-2" transform="translate(16.27 38.99)">Select</text><rect class="cls-1" x="2.25" y="63.25" width="157.5" height="70.5" rx="7.84"/><path class="cls-1" d="M170.41,97.5a5.59,5.59,0,0,1,5.59,5.59v54.82a5.59,5.59,0,0,1-5.59,5.59H28.59A5.59,5.59,0,0,1,23,157.91V103.09a5.59,5.59,0,0,1,5.59-5.59H170.41m0-4.5H28.59A10.11,10.11,0,0,0,18.5,103.09v54.82A10.11,10.11,0,0,0,28.59,168H170.41a10.11,10.11,0,0,0,10.09-10.09V103.09A10.11,10.11,0,0,0,170.41,93Z" transform="translate(-18.5 -32)"/><g id="Livello_9" data-name="Livello 9"><polygon class="cls-3" points="140.5 36.5 147.21 24.5 133.79 24.5 140.5 36.5"/><rect class="cls-4" x="2.25" y="90.25" width="157.5" height="16.5"/><path class="cls-4" d="M176,124.5v12H23v-12H176m4.5-4.5H18.5v21h162V120Z" transform="translate(-18.5 -32)"/></g><text id="_1._Apple-2" data-name="1. Apple" class="cls-5" transform="translate(9.3 83.07)">1. ...........</text><text id="_1._Apple-3" data-name="1. Apple" class="cls-5" transform="translate(9.3 103.07)">2. ...........</text><text id="_1._Apple-4" data-name="1. Apple" class="cls-5" transform="translate(9.3 123.07)">3. ...........</text></svg>