<svg id="Check_copia" data-name="Check copia" xmlns="http://www.w3.org/2000/svg" viewBox="0 0 200 200"><defs><style>.cls-1{fill:none;stroke:#fff;stroke-linecap:round;stroke-linejoin:round;stroke-width:4.5px;}.cls-2{fill:#fff;}</style></defs><title>Tavola disegno 1MULTI CHECK</title><rect class="cls-1" x="20" y="37" width="32" height="32" rx="5"/><rect class="cls-1" x="20" y="84" width="32" height="32" rx="5"/><rect class="cls-1" x="20" y="131" width="32" height="32" rx="5"/><rect class="cls-2" x="29.25" y="93.25" width="13.5" height="13.5"/><path class="cls-2" d="M40.5,95.5v9h-9v-9h9M43,91H29a2,2,0,0,0-2,2v14a2,2,0,0,0,2,2H43a2,2,0,0,0,2-2V93a2,2,0,0,0-2-2Z"/><rect class="cls-1" x="84" y="37" width="32" height="32" rx="5"/><rect class="cls-1" x="84" y="84" width="32" height="32" rx="5"/><rect class="cls-1" x="84" y="131" width="32" height="32" rx="5"/><rect class="cls-2" x="93.25" y="46.25" width="13.5" height="13.5"/><path class="cls-2" d="M104.5,48.5v9h-9v-9h9M107,44H93a2,2,0,0,0-2,2V60a2,2,0,0,0,2,2h14a2,2,0,0,0,2-2V46a2,2,0,0,0-2-2Z"/><rect class="cls-1" x="148" y="37" width="32" height="32" rx="5"/><rect class="cls-1" x="148" y="84" width="32" height="32" rx="5"/><rect class="cls-1" x="148" y="131" width="32" height="32" rx="5"/><rect class="cls-2" x="157.25" y="46.25" width="13.5" height="13.5"/><path class="cls-2" d="M168.5,48.5v9h-9v-9h9M171,44H157a2,2,0,0,0-2,2V60a2,2,0,0,0,2,2h14a2,2,0,0,0,2-2V46a2,2,0,0,0-2-2Z"/><rect class="cls-2" x="157.25" y="93.25" width="13.5" height="13.5"/><path class="cls-2" d="M168.5,95.5v9h-9v-9h9M171,91H157a2,2,0,0,0-2,2v14a2,2,0,0,0,2,2h14a2,2,0,0,0,2-2V93a2,2,0,0,0-2-2Z"/><rect class="cls-2" x="93.25" y="140.25" width="13.5" height="13.5"/><path class="cls-2" d="M104.5,142.5v9h-9v-9h9M107,138H93a2,2,0,0,0-2,2v14a2,2,0,0,0,2,2h14a2,2,0,0,0,2-2V140a2,2,0,0,0-2-2Z"/></svg>