<svg id="Check" xmlns="http://www.w3.org/2000/svg" viewBox="0 0 200 200"><defs><style>.cls-1,.cls-3{fill:#fff;}.cls-1,.cls-2{stroke:#fff;stroke-linecap:round;}.cls-1{stroke-miterlimit:10;stroke-width:4px;}.cls-2{fill:none;stroke-linejoin:round;stroke-width:4.5px;}</style></defs><title>Tavola disegno 1check</title><line class="cls-1" x1="69" y1="53" x2="179" y2="53"/><line class="cls-1" x1="69" y1="100" x2="179" y2="100"/><line class="cls-1" x1="69" y1="147" x2="179" y2="147"/><rect class="cls-2" x="20" y="37" width="32" height="32" rx="5"/><rect class="cls-2" x="20" y="84" width="32" height="32" rx="5"/><rect class="cls-2" x="20" y="131" width="32" height="32" rx="5"/><rect class="cls-3" x="29.25" y="46.25" width="13.5" height="13.5"/><path class="cls-3" d="M40.5,48.5v9h-9v-9h9M43,44H29a2,2,0,0,0-2,2V60a2,2,0,0,0,2,2H43a2,2,0,0,0,2-2V46a2,2,0,0,0-2-2Z"/><rect class="cls-3" x="29.25" y="93.25" width="13.5" height="13.5"/><path class="cls-3" d="M40.5,95.5v9h-9v-9h9M43,91H29a2,2,0,0,0-2,2v14a2,2,0,0,0,2,2H43a2,2,0,0,0,2-2V93a2,2,0,0,0-2-2Z"/></svg>