<svg xmlns="http://www.w3.org/2000/svg" viewBox="0 0 40.75 16.75"><defs><style>.cls-1{fill:#343a40;}.cls-2{fill:none;stroke:#343a40;stroke-linecap:round;stroke-linejoin:round;stroke-width:0.75px;}</style></defs><title>number</title><g id="Livello_1_copia_2" data-name="Livello 1 copia 2"><path class="cls-1" d="M11.46,27.52V23.08a4,4,0,0,1-1.67,1,.46.46,0,0,1-.36-.16.52.52,0,0,1-.16-.38.44.44,0,0,1,.15-.37,4.12,4.12,0,0,1,.56-.3,4.24,4.24,0,0,0,.94-.58,4.1,4.1,0,0,0,.63-.69c.18-.26.3-.41.35-.47a.44.44,0,0,1,.32-.09.5.5,0,0,1,.41.2.84.84,0,0,1,.16.55v5.59c0,.66-.23,1-.67,1a.59.59,0,0,1-.48-.2A.85.85,0,0,1,11.46,27.52Z" transform="translate(-4.63 -16.63)"/><path class="cls-1" d="M16.81,27h2.55a.89.89,0,0,1,.58.16.5.5,0,0,1,.2.42A.56.56,0,0,1,20,28a.62.62,0,0,1-.48.16H15.91a.77.77,0,0,1-.57-.2.64.64,0,0,1-.21-.48,1.36,1.36,0,0,1,.13-.46,1.74,1.74,0,0,1,.29-.46c.43-.45.83-.83,1.17-1.15a8.21,8.21,0,0,1,.75-.64,3.91,3.91,0,0,0,.67-.57,2.32,2.32,0,0,0,.4-.58,1.45,1.45,0,0,0,.14-.59,1.07,1.07,0,0,0-.15-.56,1,1,0,0,0-.4-.38,1.19,1.19,0,0,0-.56-.14,1.16,1.16,0,0,0-1,.56c0,.05-.08.19-.16.4a1.72,1.72,0,0,1-.26.51.6.6,0,0,1-.83,0,.58.58,0,0,1-.16-.44,1.84,1.84,0,0,1,.15-.7,2,2,0,0,1,.45-.67,2.53,2.53,0,0,1,.77-.48A2.91,2.91,0,0,1,17.6,21a3.2,3.2,0,0,1,1.27.23,2,2,0,0,1,.6.43,2.26,2.26,0,0,1,.41.64,2.11,2.11,0,0,1-.16,1.84,3.78,3.78,0,0,1-.61.78c-.21.19-.56.48-1.05.88a7.82,7.82,0,0,0-1,.93A3,3,0,0,0,16.81,27Z" transform="translate(-4.63 -16.63)"/><path class="cls-1" d="M23.26,23.87a1.24,1.24,0,0,0,.78-.26,1,1,0,0,0,.32-.76.92.92,0,0,0-.26-.65.91.91,0,0,0-.7-.27,1.16,1.16,0,0,0-.49.09.62.62,0,0,0-.3.22,1.41,1.41,0,0,0-.22.35c-.06.14-.12.28-.18.4a.33.33,0,0,1-.17.16.73.73,0,0,1-.3.06.5.5,0,0,1-.36-.16.54.54,0,0,1-.16-.42,1.1,1.1,0,0,1,.15-.53,2.23,2.23,0,0,1,.45-.54,2.5,2.5,0,0,1,.74-.41,3,3,0,0,1,1-.15,2.63,2.63,0,0,1,.86.13,2,2,0,0,1,.68.37,1.72,1.72,0,0,1,.44.57,1.77,1.77,0,0,1,.14.69,1.59,1.59,0,0,1-.21.84,2.7,2.7,0,0,1-.61.68,2.72,2.72,0,0,1,.65.47,2,2,0,0,1,.39.58A1.8,1.8,0,0,1,26,26a2.21,2.21,0,0,1-.7,1.6,2.47,2.47,0,0,1-.82.51,3,3,0,0,1-1.06.18,2.52,2.52,0,0,1-1.05-.21,2.38,2.38,0,0,1-.76-.52,2.68,2.68,0,0,1-.46-.65,1.46,1.46,0,0,1-.15-.56.62.62,0,0,1,.18-.46.69.69,0,0,1,.46-.17.5.5,0,0,1,.26.08.43.43,0,0,1,.17.19,3.31,3.31,0,0,0,.54,1,1,1,0,0,0,.82.33A1.26,1.26,0,0,0,24,27.2a1.21,1.21,0,0,0,.46-.44,1.25,1.25,0,0,0,.18-.68,1.21,1.21,0,0,0-.31-.89,1.15,1.15,0,0,0-.87-.33l-.3,0-.27,0a.59.59,0,0,1-.41-.13.49.49,0,0,1-.15-.38.45.45,0,0,1,.18-.37.79.79,0,0,1,.52-.15Z" transform="translate(-4.63 -16.63)"/><path class="cls-1" d="M28,28.31a.77.77,0,0,1-.53-.19.71.71,0,0,1-.22-.55.69.69,0,0,1,.21-.51.73.73,0,0,1,.52-.22.75.75,0,0,1,.53.22.69.69,0,0,1,.21.51.74.74,0,0,1-.21.55A.75.75,0,0,1,28,28.31Z" transform="translate(-4.63 -16.63)"/><path class="cls-1" d="M31.17,28.31a.77.77,0,0,1-.53-.19.71.71,0,0,1-.22-.55.74.74,0,0,1,.21-.51.73.73,0,0,1,.52-.22.75.75,0,0,1,.53.22.69.69,0,0,1,.21.51.74.74,0,0,1-.21.55A.75.75,0,0,1,31.17,28.31Z" transform="translate(-4.63 -16.63)"/><path class="cls-1" d="M34.3,28.31a.77.77,0,0,1-.53-.19.71.71,0,0,1-.22-.55.69.69,0,0,1,.21-.51.73.73,0,0,1,.52-.22.75.75,0,0,1,.53.22.69.69,0,0,1,.21.51.74.74,0,0,1-.21.55A.75.75,0,0,1,34.3,28.31Z" transform="translate(-4.63 -16.63)"/><path class="cls-1" d="M37.43,28.31a.77.77,0,0,1-.53-.19.71.71,0,0,1-.22-.55.69.69,0,0,1,.21-.51.73.73,0,0,1,.52-.22.75.75,0,0,1,.53.22.69.69,0,0,1,.21.51.74.74,0,0,1-.21.55A.75.75,0,0,1,37.43,28.31Z" transform="translate(-4.63 -16.63)"/></g><g id="Livello_4" data-name="Livello 4"><rect class="cls-2" x="0.38" y="0.38" width="40" height="16" rx="2"/></g></svg>