<svg id="Livello_1" data-name="Livello 1" xmlns="http://www.w3.org/2000/svg" viewBox="0 0 448.15 91"><defs><style>.cls-1{fill:#fbb03b;}.cls-2{fill:#fff;}</style></defs><title>ApolloLogo</title><path class="cls-1" d="M438,170.5c-1-1-1.81-1.95-2.68-2.8a9.55,9.55,0,0,0-13.6,0c-.76.74-1.52,1.49-2.26,2.25-.32.32-.51.44-.7-.13-.34-1-.74-2-1.14-3-2.26-5.46-7.49-7.68-12.81-5.57-.84.34-1.71.61-2.54,1-.58.25-.72.14-.67-.48.09-1.22.15-2.44.15-3.66a9.38,9.38,0,0,0-8.89-9.41c-1.07-.07-2.13-.18-3.2-.17-.79,0-.77-.32-.52-.85l1.3-2.58c2.26-4.48,1.25-9-2.59-12.19-1.43-1.21-3.2-1.76-4.77-2.81a8.37,8.37,0,0,1,1.77-1.53c2.27-1.69,4-3.71,4.5-6.6a9.57,9.57,0,0,0-1.87-7.72c-.8-1-1.63-2-2.52-3.15l3.46-.93a9.58,9.58,0,0,0,7-12.09c-.26-1-.48-1.93-.77-2.88-.19-.59,0-.65.53-.58,1.34.21,2.68.48,4,.56a9.41,9.41,0,0,0,10.12-8.45c.13-1.14.37-2.26.57-3.49,1.08.69,2.06,1.29,3,1.93a9.31,9.31,0,0,0,5.2,1.82,9.56,9.56,0,0,0,7.71-3.74c.85-1.09,1.58-2.27,2.33-3.43.29-.44.43-.42.72,0a28.39,28.39,0,0,0,3,4.23,11,11,0,0,0,4.87,2.64c2.7.8,5-.24,7.19-1.44.77-.42,1.47-1,2.2-1.41,1-.64,1-.64,1.18.5s.27,2,.46,3.05A9.55,9.55,0,0,0,459,95.09c.95-.17,1.91-.3,2.87-.47.5-.08.71,0,.54.58-.36,1.2-.67,2.41-.94,3.63A9.47,9.47,0,0,0,468.15,110c1.27.37,2.54.7,3.93,1.08-.85,1.06-1.64,2-2.41,3a9.57,9.57,0,0,0,1.4,13.54c1,.8,1.93,1.58,3,2.45-1.1.57-2.11,1-3.08,1.59a10.18,10.18,0,0,0-5.48,7.37,9.22,9.22,0,0,0,.9,5.7c.49,1,1,1.95,1.47,2.93.25.5.3.87-.51.85-1.06,0-2.13.1-3.19.17a9.41,9.41,0,0,0-8.91,9.41c0,1.22.07,2.44.16,3.65.05.63-.09.7-.67.49a24,24,0,0,0-5.25-1.68,8.89,8.89,0,0,0-7.06,2,10.18,10.18,0,0,0-3.07,4.36C439,168.05,438.52,169.14,438,170.5Zm-9.48-10A35.45,35.45,0,1,0,393.17,125,35.29,35.29,0,0,0,428.51,160.49Z" transform="translate(-25.93 -79.5)"/><path class="cls-1" d="M428.48,155.82c-16.71.1-30.47-13.72-30.57-30.67a30.61,30.61,0,1,1,30.57,30.67Z" transform="translate(-25.93 -79.5)"/><path class="cls-2" d="M79.4,154.07l-3.59-9.43H45.25l-3.58,9.64a34.21,34.21,0,0,1-3.59,7.61c-1,1.31-2.62,2-4.87,2a7.14,7.14,0,0,1-5.08-2.1,6.43,6.43,0,0,1-2.2-4.77,10.75,10.75,0,0,1,.51-3.18q.51-1.63,1.69-4.56l19.23-48.81q.81-2.1,2-5a25.81,25.81,0,0,1,2.46-4.89,10.06,10.06,0,0,1,3.44-3.16,10.53,10.53,0,0,1,5.25-1.2,10.7,10.7,0,0,1,5.31,1.2,10.27,10.27,0,0,1,3.43,3.1,22.27,22.27,0,0,1,2.21,4.08q.9,2.17,2.28,5.82l19.64,48.5c1.53,3.69,2.3,6.38,2.3,8a6.63,6.63,0,0,1-2.18,4.79,7.12,7.12,0,0,1-5.25,2.18,6.8,6.8,0,0,1-3.08-.64A6.4,6.4,0,0,1,83,161.48a15.78,15.78,0,0,1-1.87-3.39C80.45,156.57,79.88,155.23,79.4,154.07ZM49.25,133.2H71.71l-11.33-31Z" transform="translate(-25.93 -79.5)"/><path class="cls-2" d="M136,133.31H122.06v21.27c0,3-.72,5.35-2.16,6.92a7,7,0,0,1-5.43,2.36,7.12,7.12,0,0,1-5.54-2.33c-1.4-1.55-2.1-3.84-2.1-6.84V96.75q0-5,2.31-7.18c1.53-1.43,4-2.15,7.33-2.15H136q8.67,0,13.33,1.33a19.86,19.86,0,0,1,8,4.26,19.27,19.27,0,0,1,5.11,7.28,25.66,25.66,0,0,1,1.74,9.69q0,11.49-7.08,17.4T136,133.31Zm-3.69-34.46H122.06v23h10.25a30.37,30.37,0,0,0,9-1.13,10.48,10.48,0,0,0,5.51-3.69,11,11,0,0,0,1.9-6.71,11.37,11.37,0,0,0-2.93-8.1Q142.52,98.85,132.31,98.85Z" transform="translate(-25.93 -79.5)"/><path class="cls-2" d="M209.93,86.14q11.69,0,20.07,4.74a30.75,30.75,0,0,1,12.69,13.48A46,46,0,0,1,247,124.9a50.27,50.27,0,0,1-2.36,15.84,34.35,34.35,0,0,1-7.07,12.36,31,31,0,0,1-11.59,8,45.71,45.71,0,0,1-31.53-.07,31.27,31.27,0,0,1-11.64-8,34.22,34.22,0,0,1-7.05-12.46,50.24,50.24,0,0,1-2.38-15.73,48.83,48.83,0,0,1,2.48-15.9,34,34,0,0,1,7.21-12.3,31,31,0,0,1,11.48-7.77A41.23,41.23,0,0,1,209.93,86.14Zm21.64,38.66a35.21,35.21,0,0,0-2.67-14.31,19.93,19.93,0,0,0-7.61-9.15,20.93,20.93,0,0,0-11.36-3.1A20.62,20.62,0,0,0,201.5,100a18.68,18.68,0,0,0-6.67,5,24.05,24.05,0,0,0-4.41,8.39,38.09,38.09,0,0,0-1.61,11.46,39,39,0,0,0,1.61,11.58A23.75,23.75,0,0,0,195,145a19.15,19.15,0,0,0,6.77,5.1,21.39,21.39,0,0,0,19.12-1.23,20.2,20.2,0,0,0,7.79-9A34.92,34.92,0,0,0,231.57,124.8Z" transform="translate(-25.93 -79.5)"/><path class="cls-2" d="M274.94,95.37v54.7h30.87a8.1,8.1,0,0,1,5.66,1.8,5.82,5.82,0,0,1,2,4.51,5.68,5.68,0,0,1-1.95,4.48,8.34,8.34,0,0,1-5.69,1.72H269.05c-3.32,0-5.7-.73-7.16-2.2s-2.17-3.85-2.17-7.13V95.37q0-4.62,2.07-6.92a7,7,0,0,1,5.46-2.31,7.27,7.27,0,0,1,5.57,2.28Q274.94,90.7,274.94,95.37Z" transform="translate(-25.93 -79.5)"/><path class="cls-2" d="M338.36,95.37v54.7h30.87a8.1,8.1,0,0,1,5.66,1.8,5.82,5.82,0,0,1,2,4.51,5.68,5.68,0,0,1-1.95,4.48,8.34,8.34,0,0,1-5.69,1.72H332.47c-3.32,0-5.7-.73-7.16-2.2s-2.17-3.85-2.17-7.13V95.37q0-4.62,2.07-6.92a7,7,0,0,1,5.46-2.31,7.24,7.24,0,0,1,5.56,2.28Q338.36,90.7,338.36,95.37Z" transform="translate(-25.93 -79.5)"/></svg>